<?xml version="1.0" encoding="UTF-8"?>
<svg id="Layer_2" xmlns="http://www.w3.org/2000/svg" viewBox="0 0 1645.06 676.16">
  <defs>
    <style>
      .cls-1 {
        fill: #fdb814;
      }
    </style>
  </defs>
  <g id="Layer_1-2" data-name="Layer_1">
    <g>
      <path class="cls-1" d="M351.98,192.95c-35.16-34.88-77.26-52.33-126.32-52.33h-18.8c-29.89,0-57.71,7.61-83.47,22.76v-17.03H0v529.81h123.38v-159.29c25.76,15.15,53.58,22.75,83.47,22.75h18.8c49.06,0,91.16-17.44,126.32-52.33,35.16-34.88,52.73-76.85,52.73-125.91v-42.52c0-49.06-17.58-91.02-52.73-125.91ZM281.33,348.3c0,19.04-6.53,34.93-19.97,48.59-13.35,13.56-29.04,20.16-47.97,20.16h-14.72c-19.83,0-36.53-6.53-51.06-19.96-13.15-12.15-21.1-26.31-24.24-43.12v-27.86c3.13-17.17,11.04-31.38,24.12-43.26,14.55-13.23,31.29-19.66,51.17-19.66h14.72c18.98,0,34.7,6.5,48.08,19.87,13.36,13.37,19.85,29.36,19.85,48.89v16.35Z"/>
      <rect class="cls-1" x="1116.96" width="123.38" height="529.81"/>
      <path class="cls-1" d="M1645.06,146.35h-123.38v13.27c-25.66-15.37-53.75-23.08-84.29-23.08h-17.99c-49.6,0-91.85,17.45-126.73,52.33-34.89,34.89-52.33,76.85-52.33,125.91v42.51c0,49.06,17.44,91.03,52.33,125.91,34.88,34.89,77.12,52.33,126.73,52.33h18.81c30.1,0,57.91-7.69,83.47-23.05v17.33h123.38V146.35h0ZM1521.68,344.95c-1.91,19.02-9.84,34.75-24.23,48.05-14.53,13.44-31.23,19.96-51.06,19.96h-14.72c-18.99,0-34.85-6.63-48.48-20.27-13.64-13.64-20.27-29.5-20.27-48.48v-17.17c0-18.92,6.6-34.61,20.17-47.97,13.65-13.43,29.55-19.96,48.59-19.96h14.72c19.89,0,36.62,6.43,51.17,19.66,14.32,13.02,22.21,28.83,24.12,48.33v17.86Z"/>
      <path class="cls-1" d="M684.42,344.55v.4c-1.91,19.02-9.84,34.75-24.23,48.05-14.53,13.44-31.23,19.96-51.06,19.96h-14.72c-18.99,0-34.85-6.63-48.48-20.27-13.64-13.64-20.27-29.5-20.27-48.48v-17.17c0-18.92,6.6-34.61,20.17-47.97,13.65-13.43,29.55-19.96,48.59-19.96h14.72c19.89,0,36.62,6.43,51.17,19.66,14.32,13.02,22.21,28.83,24.12,48.33v4.51h37.99c62.45,0,113.07-50.63,113.07-113.07v-72.18h-151.06v13.27c-25.66-15.37-53.75-23.08-84.29-23.08h-17.99c-49.6,0-91.85,17.45-126.73,52.33-34.89,34.89-52.33,76.85-52.33,125.91v42.51c0,49.06,17.44,91.03,52.33,125.91,34.88,34.89,77.12,52.33,126.73,52.33h18.81c30.1,0,57.91-7.69,83.47-23.05v17.33h151.06v-72.8c0-62.11-50.35-112.45-112.45-112.45h-38.61Z"/>
      <g>
        <path class="cls-1" d="M998.51,331.61v-5.49c3.13-17.17,11.05-31.38,24.12-43.26,14.55-13.23,31.29-19.66,51.17-19.66h14.72c1.44,0,2.86.05,4.26.13l24.18-122c-5.31-.44-10.69-.69-16.18-.69h-18.8c-29.89,0-57.71,7.61-83.47,22.75v-17.03h-149.73v72.29c0,62.39,50.58,112.96,112.96,112.96h36.77Z"/>
        <path class="cls-1" d="M848.78,457.62v72.19h149.73v-185.26h-36.66c-62.45,0-113.07,50.62-113.07,113.07Z"/>
      </g>
    </g>
  </g>
</svg>