<?xml version="1.0" encoding="UTF-8"?>
<svg id="Layer_2" xmlns="http://www.w3.org/2000/svg" viewBox="0 0 796.28 535.53">
  <defs>
    <style>
      .cls-1 {
        fill: #fdb814;
      }
    </style>
  </defs>
  <g id="Layer_1-2" data-name="Layer_1">
    <rect class="cls-1" x="268.18" width="123.38" height="529.81"/>
    <path class="cls-1" d="M796.28,146.35h-123.38v13.27c-25.66-15.37-53.75-23.08-84.29-23.08h-17.99c-49.6,0-91.85,17.45-126.73,52.33-34.89,34.89-52.33,76.85-52.33,125.91v42.51c0,49.06,17.44,91.03,52.33,125.91,34.88,34.89,77.12,52.33,126.73,52.33h18.81c30.1,0,57.91-7.69,83.47-23.05v17.33h123.38V146.35h0ZM672.89,344.95c-1.91,19.02-9.84,34.75-24.23,48.05-14.53,13.44-31.23,19.96-51.06,19.96h-14.72c-18.99,0-34.85-6.63-48.48-20.27-13.64-13.64-20.27-29.5-20.27-48.48v-17.17c0-18.92,6.6-34.61,20.17-47.97,13.65-13.43,29.55-19.96,48.59-19.96h14.72c19.89,0,36.62,6.43,51.17,19.66,14.32,13.02,22.21,28.83,24.12,48.33v17.86Z"/>
    <g>
      <path class="cls-1" d="M149.73,331.61v-5.49c3.13-17.17,11.05-31.38,24.12-43.26,14.55-13.23,31.29-19.66,51.17-19.66h14.72c1.44,0,2.86.05,4.26.13l24.18-122c-5.31-.44-10.69-.69-16.18-.69h-18.8c-29.89,0-57.71,7.61-83.47,22.75v-17.03H0v72.29c0,62.39,50.58,112.96,112.96,112.96h36.77Z"/>
      <path class="cls-1" d="M0,457.62v72.19h149.73v-185.26h-36.66c-62.45,0-113.07,50.62-113.07,113.07Z"/>
    </g>
  </g>
</svg>