<?xml version="1.0" encoding="UTF-8"?>
<svg id="Layer_2" xmlns="http://www.w3.org/2000/svg" viewBox="0 0 893.47 356.78">
  <defs>
    <style>
      .cls-1 {
        fill: #fdb813;
      }
    </style>
  </defs>
  <g id="Layer_1-2" data-name="Layer_1">
    <g>
      <path class="cls-1" d="M0,81.61h56.17v33.4h1.9c5.69-22.01,27.71-37.96,53.52-37.96,50.48,0,76.67,36.44,76.67,104s-26.19,104.37-76.67,104.37c-25.81,0-47.83-16.32-53.52-37.95h-1.9v109.31H0V81.61ZM129.81,198.5v-34.54c0-25.05-15.56-41.37-36.82-41.37s-36.82,11.01-36.82,29.22v58.83c0,18.22,15.56,29.23,36.82,29.23s36.82-16.32,36.82-41.37Z"/>
      <path class="cls-1" d="M378.03,280.87c-20.12,0-34.54-13.67-37.96-34.92h-2.28c-6.07,25.81-28.09,39.47-58.45,39.47-39.85,0-61.86-23.53-61.86-58.07,0-42.13,32.64-62.25,85.4-62.25h31.5v-12.53c0-19.35-9.49-31.5-33.02-31.5s-34.16,11.39-42.89,23.53l-33.4-29.6c15.94-23.53,38.72-37.96,80.47-37.96,56.17,0,85.02,25.81,85.02,72.87v87.3h18.6v43.65h-31.12ZM334.38,220.52v-23.53h-27.33c-21.63,0-33.02,7.97-33.02,22.39v5.69c0,14.43,9.49,21.25,26.19,21.25,18.6,0,34.16-7.59,34.16-25.81Z"/>
      <path class="cls-1" d="M446.73,280.87V81.61h56.17v43.27h1.9c4.56-22.01,19.74-43.27,50.86-43.27h9.87v52.38h-14.04c-32.64,0-48.58,7.21-48.58,30.36v116.52h-56.17Z"/>
      <path class="cls-1" d="M655.87,280.87c-38.33,0-55.79-19.36-55.79-54.65V0h56.17v237.22h25.05v43.65h-25.43Z"/>
      <path class="cls-1" d="M862.35,280.87c-20.12,0-34.54-13.67-37.96-34.92h-2.28c-6.07,25.81-28.09,39.47-58.45,39.47-39.85,0-61.86-23.53-61.86-58.07,0-42.13,32.64-62.25,85.4-62.25h31.5v-12.53c0-19.35-9.49-31.5-33.02-31.5s-34.16,11.39-42.89,23.53l-33.4-29.6c15.94-23.53,38.72-37.96,80.47-37.96,56.17,0,85.02,25.81,85.02,72.87v87.3h18.6v43.65h-31.12ZM818.7,220.52v-23.53h-27.33c-21.63,0-33.02,7.97-33.02,22.39v5.69c0,14.43,9.49,21.25,26.19,21.25,18.6,0,34.16-7.59,34.16-25.81Z"/>
    </g>
  </g>
</svg>